<svg height="166" viewBox="0 0 250 166" width="250" xmlns="http://www.w3.org/2000/svg"><g fill="none" fill-rule="nonzero"><g fill="#000" transform="translate(113 69.758798)"><path d="m3.39523815 14.6789486c.32857144 0 .62063495.0380283.91269842.1140851.69365082-1.9774749 2.48253974-3.3845244 4.63650803-3.3845244.73015873 0 1.4238096.1521134 2.0444445.4563403.4746032-2.77607055 2.7746032-4.86763059 5.5492064-4.86763059 2.6650794 0 4.8920636 1.93944658 5.4761906 4.48734699 1.3142857.0760567 2.5555556.6084538 3.5412699 1.4070495v-10.3437151c0-1.40704947-1.131746-2.5479004-2.4825397-2.5479004h-20.59047657c-1.38730162 0-2.48253973 1.14085093-2.48253973 2.5479004v13.9564097c.76666668-1.1028226 1.97142861-1.8253615 3.39523815-1.8253615z"/><path d="m25.4825401 23.9958978v-1.5591629h-25.44603216v1.5591629.0380284c.21904762 1.1788792 1.24126986 2.09156 2.44603179 2.09156h20.51746067c1.2777778 0 2.3-.9126808 2.4825397-2.1295884z"/></g><g transform="translate(65.422964 32)"><g fill="#6c63ff"><path d="m107.613424 67.6054657h-28.0000001v-.4390522h27.6028371v-20.4159238h.397163z"/><path d="m7.16301805 76.1669821h-.31205674v-20.8549759h21.99999999v.4390521h-21.68794325z"/><path d="m42.5592075 29.6274569h-21v-20.85497593h.2978723v20.41592383h20.7021277z"/></g><g transform="translate(14.773177)"><path d="m.62678752 0c-.34570719.00064698-.6256156.28107973-.6256156.62678752s.27990841.62614054.6256156.62678752h12.71467508c.3457072-.00064698.6256156-.28107973.6256156-.62678752s-.2799084-.62614054-.6256156-.62678752z" fill="#3f3d56"/><path d="m.62678752 3.69282571c-.34616519 0-.62678752.28062233-.62678752.62678752s.28062233.62678752.62678752.62678752h12.71467508c.3457072-.00064698.6256156-.28107973.6256156-.62678752s-.2799084-.62614054-.6256156-.62678752z" fill="#3f3d56"/><path d="m99.0633232 43.9433804c.3457071-.0006481.6256156-.2810809.6256156-.6267887s-.2799085-.6261405-.6256156-.6267886h-12.7160143c-.224209-.0004185-.4315664.1189547-.5437922.3130558-.1122259.194101-.1122259.4333646 0 .6274657.1122258.1941011.3195832.3134742.5437922.3130558z" fill="#2f2e41"/><path d="m99.0633232 40.2501749c.3457071-.0006481.6256156-.2810809.6256156-.6267887s-.2799085-.6261405-.6256156-.6267886h-12.7160143c-.224209-.0004185-.4315664.1189547-.5437922.3130558-.1122259.194101-.1122259.4333646 0 .6274657.1122258.1941011.3195832.3134743.5437922.3130558z" fill="#2f2e41"/><path d="m45.4892887 73.9785773c-12.972776 0-23.4892887-10.5165127-23.4892887-23.4892886 0-12.972776 10.5165127-23.4892887 23.4892887-23.4892887 12.9727759 0 23.4892886 10.5165127 23.4892886 23.4892887-.0146602 12.9666986-10.52259 23.4746284-23.4892886 23.4892886zm0-46.5395252c-9.3229505 0-17.7279031 5.6160099-21.2956418 14.2292929-3.5677387 8.6132831-1.5956583 18.5276008 4.9966632 25.1199222 6.5923215 6.5923215 16.5066391 8.5644019 25.1199222 4.9966632s14.2292929-11.9726913 14.2292929-21.2956417c-.0143964-12.7243262-10.3259104-23.0358401-23.0502365-23.0502366z" fill="#e4e4e4"/></g><circle cx="50.536685" cy="29.627349" fill="#6c63ff" r="2.634313"/><circle cx="37.145595" cy="55.750951" fill="#6c63ff" r="2.634313"/><circle cx="75.782182" cy="67.605358" fill="#6c63ff" r="2.634313"/><path d="m.62796163 78.9738796c-.34616519 0-.62678752.2806224-.62678752.6267876 0 .3461651.28062233.6267875.62678752.6267875h12.71601427c.3457071-.000647.6256156-.2810798.6256156-.6267875 0-.3457078-.2799085-.6261406-.6256156-.6267876z" fill="#2f2e41"/><path d="m.62796163 82.667084c-.22420902-.0004185-.43156646.1189547-.54379227.3130558-.11222581.194101-.11222581.4333646 0 .6274657s.31958325.3134743.54379227.3130558h12.71601427c.3457071-.0006481.6256156-.2810809.6256156-.6267887s-.2799085-.6261405-.6256156-.6267886z" fill="#2f2e41"/></g><g transform="translate(26 6.679302)"><path d="m32.5242153 15.9065899h-23.62409301c-.39280018-.0004548-.71111421-.3187688-.71156906-.711569v-7.96957356c.00045564-.39279986.31876921-.71111342.71156906-.71156906h23.62409301c.3928024.00044938.7111197.31876661.711569.71156906v7.96957356c-.0004493.3928024-.3187666.7111197-.711569.711569z" fill="#3f3d56"/><path d="m11.888712 8.648587h6.261808v1h-6.261808z" fill="#fff"/><g fill="#6c63ff"><circle cx="26.404721" cy="9.075528" r="1"/><circle cx="27.827859" cy="9.075528" r="1"/><circle cx="29.250998" cy="9.075528" r="1"/></g><path d="m32.5242153 26.0108707h-23.62409301c-.39280018-.0004549-.71111421-.3187689-.71156906-.7115691v-7.9695735c.00045564-.3927999.31876921-.7111134.71156906-.7115691h23.62409301c.3928024.0004494.7111197.3187666.711569.7115691v7.9695735c-.0004493.3928025-.3187666.7111197-.711569.7115691z" fill="#3f3d56"/><path d="m11.888712 18.752868h6.261808v1h-6.261808z" fill="#fff"/><circle cx="26.404721" cy="19.179809" fill="#6c63ff" r="1"/><circle cx="27.827859" cy="19.179809" fill="#6c63ff" r="1"/><circle cx="29.250998" cy="19.179809" fill="#6c63ff" r="1"/><path d="m32.5242153 36.1151514h-23.62409301c-.39280018-.0004548-.71111421-.3187689-.71156906-.711569v-7.9695736c.00045564-.3927998.31876921-.7111134.71156906-.7115691h23.62409301c.3928024.0004494.7111197.3187667.711569.7115691v7.9695736c-.0004493.3928024-.3187666.7111196-.711569.711569z" fill="#3f3d56"/><path d="m11.888712 28.857148h6.261808v1h-6.261808z" fill="#fff"/><circle cx="26.404721" cy="29.28409" fill="#6c63ff" r="1"/><circle cx="27.827859" cy="29.28409" fill="#6c63ff" r="1"/><circle cx="29.250998" cy="29.28409" fill="#6c63ff" r="1"/><path d="m23.9087206 42.3005039h-23.9087206v-9.4260131h.28462763v9.1413855h23.62409297z" fill="#ccc"/><path d="m14.9429504 0h23.9087206v9.4260131h-.2846276v-9.14138547h-23.624093z" fill="#ccc"/></g><g transform="translate(186 22.679302)"><path d="m32.5242153 15.9065899h-23.62409301c-.39280018-.0004548-.71111421-.3187688-.71156906-.711569v-7.96957356c.00045564-.39279986.31876921-.71111342.71156906-.71156906h23.62409301c.3928024.00044938.7111197.31876661.711569.71156906v7.96957356c-.0004493.3928024-.3187666.7111197-.711569.711569z" fill="#3f3d56"/><path d="m11.888712 8.648587h6.261808v1h-6.261808z" fill="#fff"/><g fill="#6c63ff"><circle cx="26.404721" cy="9.075528" r="1"/><circle cx="27.827859" cy="9.075528" r="1"/><circle cx="29.250998" cy="9.075528" r="1"/></g><path d="m32.5242153 26.0108707h-23.62409301c-.39280018-.0004549-.71111421-.3187689-.71156906-.7115691v-7.9695735c.00045564-.3927999.31876921-.7111134.71156906-.7115691h23.62409301c.3928024.0004494.7111197.3187666.711569.7115691v7.9695735c-.0004493.3928025-.3187666.7111197-.711569.7115691z" fill="#3f3d56"/><path d="m11.888712 18.752868h6.261808v1h-6.261808z" fill="#fff"/><circle cx="26.404721" cy="19.179809" fill="#6c63ff" r="1"/><circle cx="27.827859" cy="19.179809" fill="#6c63ff" r="1"/><circle cx="29.250998" cy="19.179809" fill="#6c63ff" r="1"/><path d="m32.5242153 36.1151514h-23.62409301c-.39280018-.0004548-.71111421-.3187689-.71156906-.711569v-7.9695736c.00045564-.3927998.31876921-.7111134.71156906-.7115691h23.62409301c.3928024.0004494.7111197.3187667.711569.7115691v7.9695736c-.0004493.3928024-.3187666.7111196-.711569.711569z" fill="#3f3d56"/><path d="m11.888712 28.857148h6.261808v1h-6.261808z" fill="#fff"/><circle cx="26.404721" cy="29.28409" fill="#6c63ff" r="1"/><circle cx="27.827859" cy="29.28409" fill="#6c63ff" r="1"/><circle cx="29.250998" cy="29.28409" fill="#6c63ff" r="1"/><path d="m23.9087206 42.3005039h-23.9087206v-9.4260131h.28462763v9.1413855h23.62409297z" fill="#ccc"/><path d="m14.9429504 0h23.9087206v9.4260131h-.2846276v-9.14138547h-23.624093z" fill="#ccc"/></g><g transform="translate(80 111.679302)"><path d="m32.5242153 15.9065899h-23.62409301c-.39280018-.0004548-.71111421-.3187688-.71156906-.711569v-7.96957356c.00045564-.39279986.31876921-.71111342.71156906-.71156906h23.62409301c.3928024.00044938.7111197.31876661.711569.71156906v7.96957356c-.0004493.3928024-.3187666.7111197-.711569.711569z" fill="#3f3d56"/><path d="m11.888712 8.648587h6.261808v1h-6.261808z" fill="#fff"/><g fill="#6c63ff"><circle cx="26.404721" cy="9.075528" r="1"/><circle cx="27.827859" cy="9.075528" r="1"/><circle cx="29.250998" cy="9.075528" r="1"/></g><path d="m32.5242153 26.0108707h-23.62409301c-.39280018-.0004549-.71111421-.3187689-.71156906-.7115691v-7.9695735c.00045564-.3927999.31876921-.7111134.71156906-.7115691h23.62409301c.3928024.0004494.7111197.3187666.711569.7115691v7.9695735c-.0004493.3928025-.3187666.7111197-.711569.7115691z" fill="#3f3d56"/><path d="m11.888712 18.752868h6.261808v1h-6.261808z" fill="#fff"/><circle cx="26.404721" cy="19.179809" fill="#6c63ff" r="1"/><circle cx="27.827859" cy="19.179809" fill="#6c63ff" r="1"/><circle cx="29.250998" cy="19.179809" fill="#6c63ff" r="1"/><path d="m32.5242153 36.1151514h-23.62409301c-.39280018-.0004548-.71111421-.3187689-.71156906-.711569v-7.9695736c.00045564-.3927998.31876921-.7111134.71156906-.7115691h23.62409301c.3928024.0004494.7111197.3187667.711569.7115691v7.9695736c-.0004493.3928024-.3187666.7111196-.711569.711569z" fill="#3f3d56"/><path d="m11.888712 28.857148h6.261808v1h-6.261808z" fill="#fff"/><circle cx="26.404721" cy="29.28409" fill="#6c63ff" r="1"/><circle cx="27.827859" cy="29.28409" fill="#6c63ff" r="1"/><circle cx="29.250998" cy="29.28409" fill="#6c63ff" r="1"/><path d="m23.9087206 42.3005039h-23.9087206v-9.4260131h.28462763v9.1413855h23.62409297z" fill="#ccc"/><path d="m14.9429504 0h23.9087206v9.4260131h-.2846276v-9.14138547h-23.624093z" fill="#ccc"/></g><g fill="#3f3d56" transform="translate(6.672411 46.777567)"><path d="m33.8187886 25.0259621h-23.4231866l-4.96008922-23.4477664h-4.23309223v-1.05208407h5.08589525l4.9600892 23.44767827h22.5703836z"/><circle cx="13.828136" cy="27.055048" r="2.254587"/><circle cx="30.662388" cy="27.055048" r="2.254587"/><path d="m33.3917246 24.5304912h-22.789436l-4.02097769-19.87101068h30.58385829c.3158263 0 .6158301.13823615.821102.37825631.205272.24002015.2952635.55783102.2463043.86983942l-3.7735917 17.71020805c-.08049.526636-.5345124.9149063-1.0672592.9127069zm-22.5419601-.3006146h22.5419601c.3845032.0016131.7121767-.2786611.7701701-.6587692l3.7735917-17.71020802c.0354101-.22519034-.0295032-.45459843-.1776558-.62784785-.1481527-.17324942-.364704-.27295971-.5926614-.27295971h-30.21895551z"/><path d="m15.0326303 24.4668828-2.6332936-19.63261818.2965428-.04898332 2.6332937 19.6326181z"/><path d="m29.6746769 24.3161445-.2968072-.0481023 2.5563828-19.4823204.2968072.04810232z"/><path d="m22.3979157 4.80978617h.3006113v19.63259613h-.3006113z"/><path d="m22.5156086-4.29341464h.3006122v29.09888064h-.3006122z" transform="matrix(.00242129 -.99999707 .99999707 .00242129 12.355038 32.897042)"/><path d="m9.59905974 19.4440714h25.56452406v.3006183h-25.56452406z" transform="matrix(.99997664 -.0068357 .0068357 .99997664 -.133418 .15345)"/><ellipse cx="1.653364" cy=".901835" rx="1.653364" ry="1"/></g><path d="m108.966667 61.5 6 2.75v-5.5z" fill="#6c63ff" transform="matrix(-1 0 0 -1 222.1 123)"/><path d="m100.766667 84.75v5.5l-6.0000003-2.75z" fill="#6c63ff" transform="matrix(-1 0 0 -1 194.4 175)"/><g transform="translate(144.3 69.032669)"><path d="m85.362515 21.3114657v.0946021c0 1.8094161-1.4673517 3.2760015-3.2767678 3.2757282h-36.9852689c-1.8090537-.000186-3.2757033-1.4666746-3.2757033-3.2757282v-.0946021z" fill="#f2f2f2"/><path d="m49.5602777 5.7177103c-2.6727696.66013564-5.0721288-1.3961609-5.4910623-3.30379697l.1860855-.03326668c2.2527737-.49796267 4.7675204 1.11235143 5.3049768 3.33706365z" fill="#6c63ff"/><path d="m75.3012691 19.3726514c-.5970755 0-1.0718929-.1775609-1.4114334-.5278122-.767378-.7916669-.7193077-2.3175907-.6806788-3.5437215.0112181-.3566967.0218312-.6936476.0111173-.975878l-.0000759-.0042622c.0056404-1.147663.9342987-2.0767971 2.0819587-2.0830253h4.9500484c.5963145 0 1.0706496.1773083 1.4099614.5271011.7673531.7910078.719815 2.3165771.6816425 3.5424023-.0111423.3574587-.0216743.6951197-.0107358.9778584-.0039987 1.1494333-.9335249 2.0809186-2.0829473 2.0873374zm-1.8731541-5.0531481c.0108626.2889825.0001768.6286238-.0111682.9881628-.0373855 1.1868927-.0839079 2.6640371.6221773 3.3924537.3030678.3126371.7159322.4646149 1.2621191.4646149h4.9485805c1.0336077-.0054685 1.8701123-.8421123 1.875409-1.8757209-.0111412-.2856776-.0005073-.6268461.0107617-.9880608.0369541-1.1865871.0829682-2.663375-.6230651-3.3911345-.3028141-.3121797-.715272-.4639548-1.2606979-.4639548h-4.9497699c-1.0324968.005773-1.868184.841145-1.8743465 1.8736396z" fill="#3f3d56"/><path d="m48.4666596 5.90902387c-.8679754-.0052598-1.7170611-.25395576-2.4507146-.71781073-1.0747985-.66786079-1.8863392-1.73749573-2.1179106-2.79134251l-.0232097-.10563418.2904534-.05197918c2.2863741-.50461392 4.8724019 1.12151224 5.4264065 3.41362171l.0242888.10050695-.1003801.02482214c-.3431775.08493063-.6954029.1278158-1.0489337.1278158zm-4.3404033-3.44854135c.2494772.96674214 1.0066289 1.93718936 1.9994313 2.55413758.9599081.61431946 2.1231636.82580981 3.2378739.58867466-.5796262-2.13546084-3.0067339-3.63397499-5.1554182-3.15752755z" fill="#3f3d56"/><path d="m45.5826018 17.7230743c-.680159 0-1.2327383-.304363-1.557155-.859586-.3698014-.6569343-.3700516-1.4592102-.0006601-2.1163751.3296031-.5647154.8953591-.8710568 1.5940706-.860347h6.5955067c.6963506-.0088832 1.2625255.296089 1.5923303.8614635.369425.6570045.3693529 1.4591346-.0001902 2.1160726-.3296665.5640553-.8956887.8653214-1.5937026.8585194h-6.5956314c-.0115609.0001511-.0230837.0002526-.0345683.0002526zm.0038579-3.628645c-.606568 0-1.0965383.2682209-1.3821057.7575051-.3327792.5920403-.3325428 1.3148095.0006237 1.9066319.2903776.4970509.7903851.7660837 1.410633.7563376h6.5987575c.6208944.0098979 1.1224509-.259033 1.4126258-.7555257.3329001-.5918491.332943-1.3144885.0001133-1.9063772-.2903651-.497762-.7920224-.7657791-1.4112671-.758318h-6.599165c-.0100767-.0001518-.0202033-.0002537-.0302196-.0002537z" fill="#3f3d56"/><g fill="#6c63ff"><path d="m76.9938663 14.7101092h-2.0791674c-.2870731 0-.5197918-.2327187-.5197918-.5197918s.2327187-.5197919.5197918-.5197919h2.0791674c.2870731 0 .5197918.2327188.5197918.5197919s-.2327187.5197918-.5197918.5197918z"/><path d="m76.9938663 16.3734431h-2.0791674c-.2870731 0-.5197918-.2327187-.5197918-.5197918s.2327187-.5197919.5197918-.5197919h2.0791674c.2870731 0 .5197918.2327188.5197918.5197919s-.2327187.5197918-.5197918.5197918z"/><path d="m76.9938663 18.036777h-2.0791674c-.2870731 0-.5197918-.2327187-.5197918-.5197918s.2327187-.5197919.5197918-.5197919h2.0791674c.2870731 0 .5197918.2327188.5197918.5197919s-.2327187.5197918-.5197918.5197918z"/><path d="m80.6324092 14.7101092h-2.0791674c-.2870731 0-.5197918-.2327187-.5197918-.5197918s.2327187-.5197919.5197918-.5197919h2.0791674c.2870731 0 .5197919.2327188.5197919.5197919s-.2327188.5197918-.5197919.5197918z"/><path d="m80.6324092 16.3734431h-2.0791674c-.2870731 0-.5197918-.2327187-.5197918-.5197918s.2327187-.5197919.5197918-.5197919h2.0791674c.2870731 0 .5197919.2327188.5197919.5197919s-.2327188.5197918-.5197919.5197918z"/><path d="m80.6324092 18.036777h-2.0791674c-.2870731 0-.5197918-.2327187-.5197918-.5197918s.2327187-.5197919.5197918-.5197919h2.0791674c.2870731 0 .5197919.2327188.5197919.5197919s-.2327188.5197918-.5197919.5197918z"/></g><path d="m41.824771 7.322922h43.537744v1h-43.537744z" fill="#3f3d56"/><path d="m81.9318888 24.7420918h-36.8012626c-1.8937957-.0021392-3.428487-1.5368304-3.4306262-3.4306261v-17.88083952c.0021392-1.89379572 1.5368305-3.42848695 3.4306262-3.43062618h36.8012626c1.8937957.00213923 3.428487 1.53683046 3.4306262 3.43062618v17.88083952c-.0021392 1.8937957-1.5368305 3.4284869-3.4306262 3.4306261zm-36.8012626-24.53417506c-1.7790154.00202118-3.2206883 1.44369404-3.2227095 3.22270944v17.88083952c.0020218 1.7790151 1.4436943 3.2206876 3.2227095 3.2227094h36.8012626c1.7790173-.0020166 3.2206928-1.4436921 3.2227095-3.2227094v-17.88083952c-.0020167-1.7790173-1.4436922-3.22069283-3.2227095-3.22270944z" fill="#3f3d56"/><path d="m-.33333333 30.4673315 6 2.75v-5.5z" fill="#6c63ff"/></g><g transform="translate(19.866318 130.392506)"><path d="m.16139832 2.78366517.32247731 15.32299443 9.91972547 5.2422275 18.0650371-3.2259558.443702-15.9279351-11.452084-4.03254333z" fill="#fff"/><g fill="#cacaca"><path d="m10.3777477 23.5143262-10.05025977-5.3111402-.32748793-15.55535159 17.4756547-2.64783441.0372426.01307058 11.5609792 4.07080498-.4503565 16.17227474zm-9.73746071-5.5042008 9.78913591 5.173155 17.8845524-3.1936785.4367439-15.68359151-11.3057373-3.98099623-17.12236661 2.59431619z"/><path d="m10.1822429 6.93822161-.0388314-.01537484-10.04055582-3.9921351.11688817-.29429012 10.00192165 3.97656316 18.6689923-2.57489068.0433649.31380433z"/><path d="m10.1443668 6.77501883h.3168379v16.57439167h-.3168379z" transform="matrix(.99992602 -.01216377 .01216377 .99992602 -.182451 .126435)"/><path d="m8.03666489 5.78432051-2.74263407-1.10659391 17.42382768-2.77634044 2.742437 1.10659391z"/><path d="m2.10179649 5.99265138h.31681425v4.57035702h-.31681425z" transform="matrix(.39545669 -.91848462 .91848462 .39545669 -6.236668 7.080269)"/></g><path d="m4.00268887 11.2201039h.31681425v4.570357h-.31681425z" fill="#6c63ff" transform="matrix(.39545669 -.91848462 .91848462 .39545669 -9.888831 11.986431)"/><path d="m17.3946175 4.88449843.3745152 17.78769877 11.5151603 6.085281 20.9706839-3.744758.5148599-18.48981626-13.2939105-4.68104599z" fill="#6c63ff"/><path d="m29.2542115 28.949569-11.6667305-6.1653779-.3801605-18.05724926 20.286415-3.07371143.0432329.01517772 13.4204236 4.72553643-.5227897 18.77339924zm-11.3036341-6.389478 11.3636058 6.0051958 20.7610796-3.7073439.5069872-18.20611899-13.124123-4.62129307-19.876311 3.01157542z" fill="#3f3d56"/><path d="m29.0272573 9.70746597-.0449419-.01793731-11.655702-4.63413303.1358111-.34179441 11.610563 4.61619572 21.6716188-2.98902566.0502638.36426533z" fill="#3f3d56"/><path d="m28.9832936 9.51793401h.3677996v19.24019299h-.3677996z" fill="#3f3d56" transform="matrix(.99992602 -.01216377 .01216377 .99992602 -.230633 .356199)"/><path d="m26.7230031 8.37636004-3.3702427-1.29286595 20.2261871-3.22299911 3.3704398 1.29286595z" fill="#3f3d56"/><path d="m19.6471654 8.60973469h.36777v5.30544561h-.36777z" fill="#3f3d56" transform="matrix(.39545669 -.91848462 .91848462 .39545669 1.644334 25.023158)"/><path d="m21.8537964 14.6779614h.36777v5.3054456h-.36777z" fill="#fff" transform="matrix(.39545669 -.91848462 .91848462 .39545669 -2.595234 30.71842)"/></g></g></svg>